<svg xmlns="http://www.w3.org/2000/svg" width="1024" height="1024" viewBox="0 0 1024 1024"><rect width="1024" height="1024" fill="#44cb63" /><rect x="129" y="522" width="80" height="273" fill="#e623b1" fill-opacity="0.483" /><rect x="777" y="429" width="68" height="269" fill="#0e838f" fill-opacity="0.736" /><rect x="798" y="886" width="331" height="410" fill="#01140b" fill-opacity="0.617" /><rect x="545" y="468" width="322" height="503" fill="#34571e" fill-opacity="0.741" /><rect x="62" y="45" width="33" height="352" fill="#04b682" fill-opacity="0.763" /><rect x="780" y="443" width="236" height="391" fill="#0ede6f" fill-opacity="0.517" /><rect x="896" y="1015" width="303" height="139" fill="#b0ffa5" fill-opacity="0.339" /><rect x="448" y="941" width="507" height="168" fill="#0b00b2" fill-opacity="0.450" /><rect x="204" y="380" width="342" height="390" fill="#97c07b" fill-opacity="0.273" /><rect x="681" y="864" width="279" height="444" fill="#6133fb" fill-opacity="0.382" /><rect x="1022" y="805" width="321" height="456" fill="#11ad5e" fill-opacity="0.488" /><rect x="827" y="848" width="360" height="108" fill="#bbf7a7" fill-opacity="0.529" /><rect x="767" y="177" width="244" height="359" fill="#3742c4" fill-opacity="0.667" /><rect x="805" y="758" width="270" height="395" fill="#0f2473" fill-opacity="0.482" /><rect x="631" y="806" width="351" height="107" fill="#5651fd" fill-opacity="0.501" /><rect x="25" y="408" width="296" height="491" fill="#76dfca" fill-opacity="0.443" /><rect x="704" y="723" width="255" height="485" fill="#89deff" fill-opacity="0.596" /><rect x="11" y="785" width="421" height="458" fill="#422cfb" fill-opacity="0.511" /><rect x="420" y="872" width="506" height="48" fill="#f652fa" fill-opacity="0.722" /><rect x="409" y="846" width="268" height="436" fill="#b6ad2c" fill-opacity="0.449" /><rect x="3" y="678" width="254" height="327" fill="#0e52bc" fill-opacity="0.683" /><rect x="362" y="370" width="460" height="66" fill="#82b5e6" fill-opacity="0.219" /><rect x="144" y="170" width="464" height="28" fill="#e7ef75" fill-opacity="0.209" /><rect x="575" y="511" width="157" height="76" fill="#5e8539" fill-opacity="0.407" /><rect x="142" y="342" width="101" height="150" fill="#561718" fill-opacity="0.594" /><rect x="603" y="931" width="379" height="184" fill="#fe346a" fill-opacity="0.484" /><rect x="48" y="638" width="217" height="195" fill="#d782a7" fill-opacity="0.678" /><rect x="529" y="222" width="149" height="480" fill="#6b0df9" fill-opacity="0.779" /><rect x="884" y="42" width="135" height="29" fill="#cb6ceb" fill-opacity="0.288" /><rect x="328" y="912" width="380" height="279" fill="#da73d6" fill-opacity="0.527" /></svg>